<?xml version="1.0" encoding="utf-8" standalone="no"?>
<!DOCTYPE svg PUBLIC "-//W3C//DTD SVG 1.1//EN"
  "http://www.w3.org/Graphics/SVG/1.1/DTD/svg11.dtd">
<svg xmlns:xlink="http://www.w3.org/1999/xlink" width="460.8pt" height="345.6pt" viewBox="0 0 460.8 345.6" xmlns="http://www.w3.org/2000/svg" version="1.1">
 <metadata>
  <rdf:RDF xmlns:dc="http://purl.org/dc/elements/1.1/" xmlns:cc="http://creativecommons.org/ns#" xmlns:rdf="http://www.w3.org/1999/02/22-rdf-syntax-ns#">
   <cc:Work>
    <dc:type rdf:resource="http://purl.org/dc/dcmitype/StillImage"/>
    <dc:date>2023-04-28T16:29:15.458753</dc:date>
    <dc:format>image/svg+xml</dc:format>
    <dc:creator>
     <cc:Agent>
      <dc:title>Matplotlib v3.7.1, https://matplotlib.org/</dc:title>
     </cc:Agent>
    </dc:creator>
   </cc:Work>
  </rdf:RDF>
 </metadata>
 <defs>
  <style type="text/css">*{stroke-linejoin: round; stroke-linecap: butt}</style>
 </defs>
 <g id="figure_1">
  <g id="patch_1">
   <path d="M 0 345.6 
L 460.8 345.6 
L 460.8 0 
L 0 0 
z
" style="fill: #ffffff"/>
  </g>
  <g id="axes_1">
   <g id="patch_2">
    <path d="M 57.6 307.584 
L 414.72 307.584 
L 414.72 41.472 
L 57.6 41.472 
z
" style="fill: #ffffff"/>
   </g>
   <g id="matplotlib.axis_1">
    <g id="xtick_1">
     <g id="line2d_1">
      <defs>
       <path id="m8f6448d129" d="M 0 0 
L 0 3.5 
" style="stroke: #000000; stroke-width: 0.8"/>
      </defs>
      <g>
       <use xlink:href="#m8f6448d129" x="91.081433" y="307.584" style="stroke: #000000; stroke-width: 0.8"/>
      </g>
     </g>
     <g id="text_1">
      <!-- 10 -->
      <g transform="translate(84.718933 322.182437) scale(0.1 -0.1)">
       <defs>
        <path id="DejaVuSans-31" d="M 794 531 
L 1825 531 
L 1825 4091 
L 703 3866 
L 703 4441 
L 1819 4666 
L 2450 4666 
L 2450 531 
L 3481 531 
L 3481 0 
L 794 0 
L 794 531 
z
" transform="scale(0.015625)"/>
        <path id="DejaVuSans-30" d="M 2034 4250 
Q 1547 4250 1301 3770 
Q 1056 3291 1056 2328 
Q 1056 1369 1301 889 
Q 1547 409 2034 409 
Q 2525 409 2770 889 
Q 3016 1369 3016 2328 
Q 3016 3291 2770 3770 
Q 2525 4250 2034 4250 
z
M 2034 4750 
Q 2819 4750 3233 4129 
Q 3647 3509 3647 2328 
Q 3647 1150 3233 529 
Q 2819 -91 2034 -91 
Q 1250 -91 836 529 
Q 422 1150 422 2328 
Q 422 3509 836 4129 
Q 1250 4750 2034 4750 
z
" transform="scale(0.015625)"/>
       </defs>
       <use xlink:href="#DejaVuSans-31"/>
       <use xlink:href="#DejaVuSans-30" x="63.623047"/>
      </g>
     </g>
    </g>
    <g id="xtick_2">
     <g id="line2d_2">
      <g>
       <use xlink:href="#m8f6448d129" x="163.144246" y="307.584" style="stroke: #000000; stroke-width: 0.8"/>
      </g>
     </g>
     <g id="text_2">
      <!-- 20 -->
      <g transform="translate(156.781746 322.182437) scale(0.1 -0.1)">
       <defs>
        <path id="DejaVuSans-32" d="M 1228 531 
L 3431 531 
L 3431 0 
L 469 0 
L 469 531 
Q 828 903 1448 1529 
Q 2069 2156 2228 2338 
Q 2531 2678 2651 2914 
Q 2772 3150 2772 3378 
Q 2772 3750 2511 3984 
Q 2250 4219 1831 4219 
Q 1534 4219 1204 4116 
Q 875 4013 500 3803 
L 500 4441 
Q 881 4594 1212 4672 
Q 1544 4750 1819 4750 
Q 2544 4750 2975 4387 
Q 3406 4025 3406 3419 
Q 3406 3131 3298 2873 
Q 3191 2616 2906 2266 
Q 2828 2175 2409 1742 
Q 1991 1309 1228 531 
z
" transform="scale(0.015625)"/>
       </defs>
       <use xlink:href="#DejaVuSans-32"/>
       <use xlink:href="#DejaVuSans-30" x="63.623047"/>
      </g>
     </g>
    </g>
    <g id="xtick_3">
     <g id="line2d_3">
      <g>
       <use xlink:href="#m8f6448d129" x="235.20706" y="307.584" style="stroke: #000000; stroke-width: 0.8"/>
      </g>
     </g>
     <g id="text_3">
      <!-- 30 -->
      <g transform="translate(228.84456 322.182437) scale(0.1 -0.1)">
       <defs>
        <path id="DejaVuSans-33" d="M 2597 2516 
Q 3050 2419 3304 2112 
Q 3559 1806 3559 1356 
Q 3559 666 3084 287 
Q 2609 -91 1734 -91 
Q 1441 -91 1130 -33 
Q 819 25 488 141 
L 488 750 
Q 750 597 1062 519 
Q 1375 441 1716 441 
Q 2309 441 2620 675 
Q 2931 909 2931 1356 
Q 2931 1769 2642 2001 
Q 2353 2234 1838 2234 
L 1294 2234 
L 1294 2753 
L 1863 2753 
Q 2328 2753 2575 2939 
Q 2822 3125 2822 3475 
Q 2822 3834 2567 4026 
Q 2313 4219 1838 4219 
Q 1578 4219 1281 4162 
Q 984 4106 628 3988 
L 628 4550 
Q 988 4650 1302 4700 
Q 1616 4750 1894 4750 
Q 2613 4750 3031 4423 
Q 3450 4097 3450 3541 
Q 3450 3153 3228 2886 
Q 3006 2619 2597 2516 
z
" transform="scale(0.015625)"/>
       </defs>
       <use xlink:href="#DejaVuSans-33"/>
       <use xlink:href="#DejaVuSans-30" x="63.623047"/>
      </g>
     </g>
    </g>
    <g id="xtick_4">
     <g id="line2d_4">
      <g>
       <use xlink:href="#m8f6448d129" x="307.269873" y="307.584" style="stroke: #000000; stroke-width: 0.8"/>
      </g>
     </g>
     <g id="text_4">
      <!-- 40 -->
      <g transform="translate(300.907373 322.182437) scale(0.1 -0.1)">
       <defs>
        <path id="DejaVuSans-34" d="M 2419 4116 
L 825 1625 
L 2419 1625 
L 2419 4116 
z
M 2253 4666 
L 3047 4666 
L 3047 1625 
L 3713 1625 
L 3713 1100 
L 3047 1100 
L 3047 0 
L 2419 0 
L 2419 1100 
L 313 1100 
L 313 1709 
L 2253 4666 
z
" transform="scale(0.015625)"/>
       </defs>
       <use xlink:href="#DejaVuSans-34"/>
       <use xlink:href="#DejaVuSans-30" x="63.623047"/>
      </g>
     </g>
    </g>
    <g id="xtick_5">
     <g id="line2d_5">
      <g>
       <use xlink:href="#m8f6448d129" x="379.332686" y="307.584" style="stroke: #000000; stroke-width: 0.8"/>
      </g>
     </g>
     <g id="text_5">
      <!-- 50 -->
      <g transform="translate(372.970186 322.182437) scale(0.1 -0.1)">
       <defs>
        <path id="DejaVuSans-35" d="M 691 4666 
L 3169 4666 
L 3169 4134 
L 1269 4134 
L 1269 2991 
Q 1406 3038 1543 3061 
Q 1681 3084 1819 3084 
Q 2600 3084 3056 2656 
Q 3513 2228 3513 1497 
Q 3513 744 3044 326 
Q 2575 -91 1722 -91 
Q 1428 -91 1123 -41 
Q 819 9 494 109 
L 494 744 
Q 775 591 1075 516 
Q 1375 441 1709 441 
Q 2250 441 2565 725 
Q 2881 1009 2881 1497 
Q 2881 1984 2565 2268 
Q 2250 2553 1709 2553 
Q 1456 2553 1204 2497 
Q 953 2441 691 2322 
L 691 4666 
z
" transform="scale(0.015625)"/>
       </defs>
       <use xlink:href="#DejaVuSans-35"/>
       <use xlink:href="#DejaVuSans-30" x="63.623047"/>
      </g>
     </g>
    </g>
    <g id="text_6">
     <!-- x/m -->
     <g transform="translate(226.645938 335.860562) scale(0.1 -0.1)">
      <defs>
       <path id="DejaVuSans-78" d="M 3513 3500 
L 2247 1797 
L 3578 0 
L 2900 0 
L 1881 1375 
L 863 0 
L 184 0 
L 1544 1831 
L 300 3500 
L 978 3500 
L 1906 2253 
L 2834 3500 
L 3513 3500 
z
" transform="scale(0.015625)"/>
       <path id="DejaVuSans-2f" d="M 1625 4666 
L 2156 4666 
L 531 -594 
L 0 -594 
L 1625 4666 
z
" transform="scale(0.015625)"/>
       <path id="DejaVuSans-6d" d="M 3328 2828 
Q 3544 3216 3844 3400 
Q 4144 3584 4550 3584 
Q 5097 3584 5394 3201 
Q 5691 2819 5691 2113 
L 5691 0 
L 5113 0 
L 5113 2094 
Q 5113 2597 4934 2840 
Q 4756 3084 4391 3084 
Q 3944 3084 3684 2787 
Q 3425 2491 3425 1978 
L 3425 0 
L 2847 0 
L 2847 2094 
Q 2847 2600 2669 2842 
Q 2491 3084 2119 3084 
Q 1678 3084 1418 2786 
Q 1159 2488 1159 1978 
L 1159 0 
L 581 0 
L 581 3500 
L 1159 3500 
L 1159 2956 
Q 1356 3278 1631 3431 
Q 1906 3584 2284 3584 
Q 2666 3584 2933 3390 
Q 3200 3197 3328 2828 
z
" transform="scale(0.015625)"/>
      </defs>
      <use xlink:href="#DejaVuSans-78"/>
      <use xlink:href="#DejaVuSans-2f" x="59.179688"/>
      <use xlink:href="#DejaVuSans-6d" x="92.871094"/>
     </g>
    </g>
   </g>
   <g id="matplotlib.axis_2">
    <g id="ytick_1">
     <g id="line2d_6">
      <defs>
       <path id="m6f78e545fb" d="M 0 0 
L -3.5 0 
" style="stroke: #000000; stroke-width: 0.8"/>
      </defs>
      <g>
       <use xlink:href="#m6f78e545fb" x="57.6" y="271.560348" style="stroke: #000000; stroke-width: 0.8"/>
      </g>
     </g>
     <g id="text_7">
      <!-- −40 -->
      <g transform="translate(29.495313 275.359567) scale(0.1 -0.1)">
       <defs>
        <path id="DejaVuSans-2212" d="M 678 2272 
L 4684 2272 
L 4684 1741 
L 678 1741 
L 678 2272 
z
" transform="scale(0.015625)"/>
       </defs>
       <use xlink:href="#DejaVuSans-2212"/>
       <use xlink:href="#DejaVuSans-34" x="83.789062"/>
       <use xlink:href="#DejaVuSans-30" x="147.412109"/>
      </g>
     </g>
    </g>
    <g id="ytick_2">
     <g id="line2d_7">
      <g>
       <use xlink:href="#m6f78e545fb" x="57.6" y="235.528941" style="stroke: #000000; stroke-width: 0.8"/>
      </g>
     </g>
     <g id="text_8">
      <!-- −35 -->
      <g transform="translate(29.495313 239.32816) scale(0.1 -0.1)">
       <use xlink:href="#DejaVuSans-2212"/>
       <use xlink:href="#DejaVuSans-33" x="83.789062"/>
       <use xlink:href="#DejaVuSans-35" x="147.412109"/>
      </g>
     </g>
    </g>
    <g id="ytick_3">
     <g id="line2d_8">
      <g>
       <use xlink:href="#m6f78e545fb" x="57.6" y="199.497535" style="stroke: #000000; stroke-width: 0.8"/>
      </g>
     </g>
     <g id="text_9">
      <!-- −30 -->
      <g transform="translate(29.495313 203.296753) scale(0.1 -0.1)">
       <use xlink:href="#DejaVuSans-2212"/>
       <use xlink:href="#DejaVuSans-33" x="83.789062"/>
       <use xlink:href="#DejaVuSans-30" x="147.412109"/>
      </g>
     </g>
    </g>
    <g id="ytick_4">
     <g id="line2d_9">
      <g>
       <use xlink:href="#m6f78e545fb" x="57.6" y="163.466128" style="stroke: #000000; stroke-width: 0.8"/>
      </g>
     </g>
     <g id="text_10">
      <!-- −25 -->
      <g transform="translate(29.495313 167.265347) scale(0.1 -0.1)">
       <use xlink:href="#DejaVuSans-2212"/>
       <use xlink:href="#DejaVuSans-32" x="83.789062"/>
       <use xlink:href="#DejaVuSans-35" x="147.412109"/>
      </g>
     </g>
    </g>
    <g id="ytick_5">
     <g id="line2d_10">
      <g>
       <use xlink:href="#m6f78e545fb" x="57.6" y="127.434721" style="stroke: #000000; stroke-width: 0.8"/>
      </g>
     </g>
     <g id="text_11">
      <!-- −20 -->
      <g transform="translate(29.495313 131.23394) scale(0.1 -0.1)">
       <use xlink:href="#DejaVuSans-2212"/>
       <use xlink:href="#DejaVuSans-32" x="83.789062"/>
       <use xlink:href="#DejaVuSans-30" x="147.412109"/>
      </g>
     </g>
    </g>
    <g id="ytick_6">
     <g id="line2d_11">
      <g>
       <use xlink:href="#m6f78e545fb" x="57.6" y="91.403315" style="stroke: #000000; stroke-width: 0.8"/>
      </g>
     </g>
     <g id="text_12">
      <!-- −15 -->
      <g transform="translate(29.495313 95.202533) scale(0.1 -0.1)">
       <use xlink:href="#DejaVuSans-2212"/>
       <use xlink:href="#DejaVuSans-31" x="83.789062"/>
       <use xlink:href="#DejaVuSans-35" x="147.412109"/>
      </g>
     </g>
    </g>
    <g id="ytick_7">
     <g id="line2d_12">
      <g>
       <use xlink:href="#m6f78e545fb" x="57.6" y="55.371908" style="stroke: #000000; stroke-width: 0.8"/>
      </g>
     </g>
     <g id="text_13">
      <!-- −10 -->
      <g transform="translate(29.495313 59.171127) scale(0.1 -0.1)">
       <use xlink:href="#DejaVuSans-2212"/>
       <use xlink:href="#DejaVuSans-31" x="83.789062"/>
       <use xlink:href="#DejaVuSans-30" x="147.412109"/>
      </g>
     </g>
    </g>
    <g id="text_14">
     <!-- y/m -->
     <g transform="translate(23.415625 184.042062) rotate(-90) scale(0.1 -0.1)">
      <defs>
       <path id="DejaVuSans-79" d="M 2059 -325 
Q 1816 -950 1584 -1140 
Q 1353 -1331 966 -1331 
L 506 -1331 
L 506 -850 
L 844 -850 
Q 1081 -850 1212 -737 
Q 1344 -625 1503 -206 
L 1606 56 
L 191 3500 
L 800 3500 
L 1894 763 
L 2988 3500 
L 3597 3500 
L 2059 -325 
z
" transform="scale(0.015625)"/>
      </defs>
      <use xlink:href="#DejaVuSans-79"/>
      <use xlink:href="#DejaVuSans-2f" x="59.179688"/>
      <use xlink:href="#DejaVuSans-6d" x="92.871094"/>
     </g>
    </g>
   </g>
   <g id="line2d_13">
    <defs>
     <path id="m64d04c3d67" d="M -0.49999 0.49999 
L 0.50001 0.49999 
L 0.50001 -0.50001 
L -0.49999 -0.50001 
z
"/>
    </defs>
    <g clip-path="url(#pe8fbd2a188)">
     <use xlink:href="#m64d04c3d67" x="401.132275" y="203.364021" style="fill: #1f77b4"/>
     <use xlink:href="#m64d04c3d67" x="399.688626" y="206.708845" style="fill: #1f77b4"/>
     <use xlink:href="#m64d04c3d67" x="398.242399" y="210.052917" style="fill: #1f77b4"/>
     <use xlink:href="#m64d04c3d67" x="396.791016" y="213.395482" style="fill: #1f77b4"/>
     <use xlink:href="#m64d04c3d67" x="395.3319" y="216.735787" style="fill: #1f77b4"/>
     <use xlink:href="#m64d04c3d67" x="393.862472" y="220.073079" style="fill: #1f77b4"/>
     <use xlink:href="#m64d04c3d67" x="392.380156" y="223.406605" style="fill: #1f77b4"/>
     <use xlink:href="#m64d04c3d67" x="390.882372" y="226.73561" style="fill: #1f77b4"/>
     <use xlink:href="#m64d04c3d67" x="389.366543" y="230.059343" style="fill: #1f77b4"/>
     <use xlink:href="#m64d04c3d67" x="387.830091" y="233.37705" style="fill: #1f77b4"/>
     <use xlink:href="#m64d04c3d67" x="386.270439" y="236.687977" style="fill: #1f77b4"/>
     <use xlink:href="#m64d04c3d67" x="384.685009" y="239.991371" style="fill: #1f77b4"/>
     <use xlink:href="#m64d04c3d67" x="383.071159" y="243.286478" style="fill: #1f77b4"/>
     <use xlink:href="#m64d04c3d67" x="381.425765" y="246.572274" style="fill: #1f77b4"/>
     <use xlink:href="#m64d04c3d67" x="379.744905" y="249.846784" style="fill: #1f77b4"/>
     <use xlink:href="#m64d04c3d67" x="378.023709" y="253.106494" style="fill: #1f77b4"/>
     <use xlink:href="#m64d04c3d67" x="376.256418" y="256.345856" style="fill: #1f77b4"/>
     <use xlink:href="#m64d04c3d67" x="374.436667" y="259.55693" style="fill: #1f77b4"/>
     <use xlink:href="#m64d04c3d67" x="372.558043" y="262.72922" style="fill: #1f77b4"/>
     <use xlink:href="#m64d04c3d67" x="370.614137" y="265.849671" style="fill: #1f77b4"/>
     <use xlink:href="#m64d04c3d67" x="368.598536" y="268.903034" style="fill: #1f77b4"/>
     <use xlink:href="#m64d04c3d67" x="366.50483" y="271.872534" style="fill: #1f77b4"/>
     <use xlink:href="#m64d04c3d67" x="364.326608" y="274.741012" style="fill: #1f77b4"/>
     <use xlink:href="#m64d04c3d67" x="362.057458" y="277.49131" style="fill: #1f77b4"/>
     <use xlink:href="#m64d04c3d67" x="359.69097" y="280.106268" style="fill: #1f77b4"/>
     <use xlink:href="#m64d04c3d67" x="357.220876" y="282.568728" style="fill: #1f77b4"/>
     <use xlink:href="#m64d04c3d67" x="354.643162" y="284.861531" style="fill: #1f77b4"/>
     <use xlink:href="#m64d04c3d67" x="351.956881" y="286.967519" style="fill: #1f77b4"/>
     <use xlink:href="#m64d04c3d67" x="349.164772" y="288.869532" style="fill: #1f77b4"/>
     <use xlink:href="#m64d04c3d67" x="346.27282" y="290.551121" style="fill: #1f77b4"/>
     <use xlink:href="#m64d04c3d67" x="343.289193" y="291.998129" style="fill: #1f77b4"/>
     <use xlink:href="#m64d04c3d67" x="340.222381" y="293.199385" style="fill: #1f77b4"/>
     <use xlink:href="#m64d04c3d67" x="337.080869" y="294.147995" style="fill: #1f77b4"/>
     <use xlink:href="#m64d04c3d67" x="333.873145" y="294.842279" style="fill: #1f77b4"/>
     <use xlink:href="#m64d04c3d67" x="330.607697" y="295.285979" style="fill: #1f77b4"/>
     <use xlink:href="#m64d04c3d67" x="327.293012" y="295.488" style="fill: #1f77b4"/>
     <use xlink:href="#m64d04c3d67" x="323.937577" y="295.461044" style="fill: #1f77b4"/>
     <use xlink:href="#m64d04c3d67" x="320.54988" y="295.221196" style="fill: #1f77b4"/>
     <use xlink:href="#m64d04c3d67" x="317.13841" y="294.786406" style="fill: #1f77b4"/>
     <use xlink:href="#m64d04c3d67" x="313.711354" y="294.17462" style="fill: #1f77b4"/>
     <use xlink:href="#m64d04c3d67" x="310.275756" y="293.403789" style="fill: #1f77b4"/>
     <use xlink:href="#m64d04c3d67" x="306.837108" y="292.49186" style="fill: #1f77b4"/>
     <use xlink:href="#m64d04c3d67" x="303.399096" y="291.456783" style="fill: #1f77b4"/>
     <use xlink:href="#m64d04c3d67" x="299.963783" y="290.316505" style="fill: #1f77b4"/>
     <use xlink:href="#m64d04c3d67" x="296.532019" y="289.088975" style="fill: #1f77b4"/>
     <use xlink:href="#m64d04c3d67" x="293.103934" y="287.792142" style="fill: #1f77b4"/>
     <use xlink:href="#m64d04c3d67" x="289.679445" y="286.442922" style="fill: #1f77b4"/>
     <use xlink:href="#m64d04c3d67" x="286.258472" y="285.056395" style="fill: #1f77b4"/>
     <use xlink:href="#m64d04c3d67" x="282.84093" y="283.645329" style="fill: #1f77b4"/>
     <use xlink:href="#m64d04c3d67" x="279.426738" y="282.219911" style="fill: #1f77b4"/>
     <use xlink:href="#m64d04c3d67" x="276.015813" y="280.787734" style="fill: #1f77b4"/>
     <use xlink:href="#m64d04c3d67" x="272.608073" y="279.353983" style="fill: #1f77b4"/>
     <use xlink:href="#m64d04c3d67" x="269.203436" y="277.921704" style="fill: #1f77b4"/>
     <use xlink:href="#m64d04c3d67" x="265.80182" y="276.492263" style="fill: #1f77b4"/>
     <use xlink:href="#m64d04c3d67" x="262.403141" y="275.065943" style="fill: #1f77b4"/>
     <use xlink:href="#m64d04c3d67" x="259.007319" y="273.642519" style="fill: #1f77b4"/>
     <use xlink:href="#m64d04c3d67" x="255.614271" y="272.22177" style="fill: #1f77b4"/>
     <use xlink:href="#m64d04c3d67" x="252.223914" y="270.803474" style="fill: #1f77b4"/>
     <use xlink:href="#m64d04c3d67" x="248.836166" y="269.387407" style="fill: #1f77b4"/>
     <use xlink:href="#m64d04c3d67" x="245.450946" y="267.973348" style="fill: #1f77b4"/>
     <use xlink:href="#m64d04c3d67" x="242.068172" y="266.561074" style="fill: #1f77b4"/>
     <use xlink:href="#m64d04c3d67" x="238.68776" y="265.150362" style="fill: #1f77b4"/>
     <use xlink:href="#m64d04c3d67" x="235.30963" y="263.740991" style="fill: #1f77b4"/>
     <use xlink:href="#m64d04c3d67" x="231.933698" y="262.332737" style="fill: #1f77b4"/>
     <use xlink:href="#m64d04c3d67" x="228.559884" y="260.925378" style="fill: #1f77b4"/>
     <use xlink:href="#m64d04c3d67" x="225.188105" y="259.518691" style="fill: #1f77b4"/>
     <use xlink:href="#m64d04c3d67" x="221.818278" y="258.112455" style="fill: #1f77b4"/>
     <use xlink:href="#m64d04c3d67" x="218.450323" y="256.706447" style="fill: #1f77b4"/>
     <use xlink:href="#m64d04c3d67" x="215.084156" y="255.300444" style="fill: #1f77b4"/>
     <use xlink:href="#m64d04c3d67" x="211.719697" y="253.894223" style="fill: #1f77b4"/>
     <use xlink:href="#m64d04c3d67" x="208.356863" y="252.487563" style="fill: #1f77b4"/>
     <use xlink:href="#m64d04c3d67" x="204.995572" y="251.080241" style="fill: #1f77b4"/>
     <use xlink:href="#m64d04c3d67" x="201.635742" y="249.672033" style="fill: #1f77b4"/>
     <use xlink:href="#m64d04c3d67" x="198.277291" y="248.262719" style="fill: #1f77b4"/>
     <use xlink:href="#m64d04c3d67" x="194.920138" y="246.852074" style="fill: #1f77b4"/>
     <use xlink:href="#m64d04c3d67" x="191.5642" y="245.439877" style="fill: #1f77b4"/>
     <use xlink:href="#m64d04c3d67" x="188.209396" y="244.025905" style="fill: #1f77b4"/>
     <use xlink:href="#m64d04c3d67" x="184.855644" y="242.609936" style="fill: #1f77b4"/>
     <use xlink:href="#m64d04c3d67" x="181.502861" y="241.191746" style="fill: #1f77b4"/>
     <use xlink:href="#m64d04c3d67" x="178.150966" y="239.771114" style="fill: #1f77b4"/>
     <use xlink:href="#m64d04c3d67" x="174.799878" y="238.347816" style="fill: #1f77b4"/>
     <use xlink:href="#m64d04c3d67" x="171.449514" y="236.92163" style="fill: #1f77b4"/>
     <use xlink:href="#m64d04c3d67" x="168.099792" y="235.492333" style="fill: #1f77b4"/>
     <use xlink:href="#m64d04c3d67" x="164.750631" y="234.059703" style="fill: #1f77b4"/>
     <use xlink:href="#m64d04c3d67" x="161.401948" y="232.623517" style="fill: #1f77b4"/>
     <use xlink:href="#m64d04c3d67" x="158.053662" y="231.183553" style="fill: #1f77b4"/>
     <use xlink:href="#m64d04c3d67" x="154.705692" y="229.739587" style="fill: #1f77b4"/>
     <use xlink:href="#m64d04c3d67" x="151.357954" y="228.291397" style="fill: #1f77b4"/>
     <use xlink:href="#m64d04c3d67" x="148.010368" y="226.838611" style="fill: #1f77b4"/>
     <use xlink:href="#m64d04c3d67" x="144.662851" y="225.380347" style="fill: #1f77b4"/>
     <use xlink:href="#m64d04c3d67" x="141.315322" y="223.914974" style="fill: #1f77b4"/>
     <use xlink:href="#m64d04c3d67" x="137.967776" y="222.439905" style="fill: #1f77b4"/>
     <use xlink:href="#m64d04c3d67" x="134.620742" y="220.951408" style="fill: #1f77b4"/>
     <use xlink:href="#m64d04c3d67" x="131.27566" y="219.44461" style="fill: #1f77b4"/>
     <use xlink:href="#m64d04c3d67" x="127.935181" y="217.913742" style="fill: #1f77b4"/>
     <use xlink:href="#m64d04c3d67" x="124.603412" y="216.35252" style="fill: #1f77b4"/>
     <use xlink:href="#m64d04c3d67" x="121.286102" y="214.754659" style="fill: #1f77b4"/>
     <use xlink:href="#m64d04c3d67" x="117.990623" y="213.113875" style="fill: #1f77b4"/>
     <use xlink:href="#m64d04c3d67" x="114.725824" y="211.423884" style="fill: #1f77b4"/>
     <use xlink:href="#m64d04c3d67" x="111.501705" y="209.6784" style="fill: #1f77b4"/>
     <use xlink:href="#m64d04c3d67" x="108.328908" y="207.87114" style="fill: #1f77b4"/>
     <use xlink:href="#m64d04c3d67" x="105.21821" y="205.995819" style="fill: #1f77b4"/>
     <use xlink:href="#m64d04c3d67" x="102.180388" y="204.046152" style="fill: #1f77b4"/>
     <use xlink:href="#m64d04c3d67" x="99.22622" y="202.015855" style="fill: #1f77b4"/>
     <use xlink:href="#m64d04c3d67" x="96.366482" y="199.898644" style="fill: #1f77b4"/>
     <use xlink:href="#m64d04c3d67" x="93.611951" y="197.688234" style="fill: #1f77b4"/>
     <use xlink:href="#m64d04c3d67" x="90.973404" y="195.37872" style="fill: #1f77b4"/>
     <use xlink:href="#m64d04c3d67" x="88.46162" y="192.965682" style="fill: #1f77b4"/>
     <use xlink:href="#m64d04c3d67" x="86.087375" y="190.447049" style="fill: #1f77b4"/>
     <use xlink:href="#m64d04c3d67" x="83.861445" y="187.823481" style="fill: #1f77b4"/>
     <use xlink:href="#m64d04c3d67" x="81.79461" y="185.097335" style="fill: #1f77b4"/>
     <use xlink:href="#m64d04c3d67" x="79.897645" y="182.27226" style="fill: #1f77b4"/>
     <use xlink:href="#m64d04c3d67" x="78.181329" y="179.353395" style="fill: #1f77b4"/>
     <use xlink:href="#m64d04c3d67" x="76.654221" y="176.34728" style="fill: #1f77b4"/>
     <use xlink:href="#m64d04c3d67" x="75.321757" y="173.260551" style="fill: #1f77b4"/>
     <use xlink:href="#m64d04c3d67" x="74.185607" y="170.099843" style="fill: #1f77b4"/>
     <use xlink:href="#m64d04c3d67" x="73.243473" y="166.87179" style="fill: #1f77b4"/>
     <use xlink:href="#m64d04c3d67" x="72.489259" y="163.583026" style="fill: #1f77b4"/>
     <use xlink:href="#m64d04c3d67" x="71.914771" y="160.240186" style="fill: #1f77b4"/>
     <use xlink:href="#m64d04c3d67" x="71.511815" y="156.849906" style="fill: #1f77b4"/>
     <use xlink:href="#m64d04c3d67" x="71.272198" y="153.41882" style="fill: #1f77b4"/>
     <use xlink:href="#m64d04c3d67" x="71.187725" y="149.953561" style="fill: #1f77b4"/>
     <use xlink:href="#m64d04c3d67" x="71.250204" y="146.460766" style="fill: #1f77b4"/>
     <use xlink:href="#m64d04c3d67" x="71.45144" y="142.947069" style="fill: #1f77b4"/>
     <use xlink:href="#m64d04c3d67" x="71.78324" y="139.419103" style="fill: #1f77b4"/>
     <use xlink:href="#m64d04c3d67" x="72.23741" y="135.883252" style="fill: #1f77b4"/>
     <use xlink:href="#m64d04c3d67" x="72.805757" y="132.345279" style="fill: #1f77b4"/>
     <use xlink:href="#m64d04c3d67" x="73.480086" y="128.810088" style="fill: #1f77b4"/>
     <use xlink:href="#m64d04c3d67" x="74.252205" y="125.281661" style="fill: #1f77b4"/>
     <use xlink:href="#m64d04c3d67" x="75.114377" y="121.763087" style="fill: #1f77b4"/>
     <use xlink:href="#m64d04c3d67" x="76.059651" y="118.256562" style="fill: #1f77b4"/>
     <use xlink:href="#m64d04c3d67" x="77.081599" y="114.763363" style="fill: #1f77b4"/>
     <use xlink:href="#m64d04c3d67" x="78.17422" y="111.283922" style="fill: #1f77b4"/>
     <use xlink:href="#m64d04c3d67" x="79.331951" y="107.818017" style="fill: #1f77b4"/>
     <use xlink:href="#m64d04c3d67" x="80.549602" y="104.364994" style="fill: #1f77b4"/>
     <use xlink:href="#m64d04c3d67" x="81.822289" y="100.924047" style="fill: #1f77b4"/>
     <use xlink:href="#m64d04c3d67" x="83.145364" y="97.494372" style="fill: #1f77b4"/>
     <use xlink:href="#m64d04c3d67" x="84.514588" y="94.075164" style="fill: #1f77b4"/>
     <use xlink:href="#m64d04c3d67" x="85.926191" y="90.665617" style="fill: #1f77b4"/>
     <use xlink:href="#m64d04c3d67" x="87.37664" y="87.264927" style="fill: #1f77b4"/>
     <use xlink:href="#m64d04c3d67" x="88.862404" y="83.872288" style="fill: #1f77b4"/>
     <use xlink:href="#m64d04c3d67" x="90.379952" y="80.486895" style="fill: #1f77b4"/>
     <use xlink:href="#m64d04c3d67" x="91.925751" y="77.107943" style="fill: #1f77b4"/>
     <use xlink:href="#m64d04c3d67" x="93.496272" y="73.734628" style="fill: #1f77b4"/>
     <use xlink:href="#m64d04c3d67" x="95.087981" y="70.366143" style="fill: #1f77b4"/>
     <use xlink:href="#m64d04c3d67" x="96.697348" y="67.001683" style="fill: #1f77b4"/>
     <use xlink:href="#m64d04c3d67" x="98.320841" y="63.640444" style="fill: #1f77b4"/>
     <use xlink:href="#m64d04c3d67" x="99.954928" y="60.281621" style="fill: #1f77b4"/>
     <use xlink:href="#m64d04c3d67" x="101.596079" y="56.924408" style="fill: #1f77b4"/>
     <use xlink:href="#m64d04c3d67" x="103.240761" y="53.568" style="fill: #1f77b4"/>
    </g>
   </g>
   <g id="patch_3">
    <path d="M 57.6 307.584 
L 57.6 41.472 
" style="fill: none; stroke: #000000; stroke-width: 0.8; stroke-linejoin: miter; stroke-linecap: square"/>
   </g>
   <g id="patch_4">
    <path d="M 414.72 307.584 
L 414.72 41.472 
" style="fill: none; stroke: #000000; stroke-width: 0.8; stroke-linejoin: miter; stroke-linecap: square"/>
   </g>
   <g id="patch_5">
    <path d="M 57.6 307.584 
L 414.72 307.584 
" style="fill: none; stroke: #000000; stroke-width: 0.8; stroke-linejoin: miter; stroke-linecap: square"/>
   </g>
   <g id="patch_6">
    <path d="M 57.6 41.472 
L 414.72 41.472 
" style="fill: none; stroke: #000000; stroke-width: 0.8; stroke-linejoin: miter; stroke-linecap: square"/>
   </g>
   <g id="text_15">
    <!-- Smoothed Path -->
    <g transform="translate(190.422188 35.472) scale(0.12 -0.12)">
     <defs>
      <path id="DejaVuSans-53" d="M 3425 4513 
L 3425 3897 
Q 3066 4069 2747 4153 
Q 2428 4238 2131 4238 
Q 1616 4238 1336 4038 
Q 1056 3838 1056 3469 
Q 1056 3159 1242 3001 
Q 1428 2844 1947 2747 
L 2328 2669 
Q 3034 2534 3370 2195 
Q 3706 1856 3706 1288 
Q 3706 609 3251 259 
Q 2797 -91 1919 -91 
Q 1588 -91 1214 -16 
Q 841 59 441 206 
L 441 856 
Q 825 641 1194 531 
Q 1563 422 1919 422 
Q 2459 422 2753 634 
Q 3047 847 3047 1241 
Q 3047 1584 2836 1778 
Q 2625 1972 2144 2069 
L 1759 2144 
Q 1053 2284 737 2584 
Q 422 2884 422 3419 
Q 422 4038 858 4394 
Q 1294 4750 2059 4750 
Q 2388 4750 2728 4690 
Q 3069 4631 3425 4513 
z
" transform="scale(0.015625)"/>
      <path id="DejaVuSans-6f" d="M 1959 3097 
Q 1497 3097 1228 2736 
Q 959 2375 959 1747 
Q 959 1119 1226 758 
Q 1494 397 1959 397 
Q 2419 397 2687 759 
Q 2956 1122 2956 1747 
Q 2956 2369 2687 2733 
Q 2419 3097 1959 3097 
z
M 1959 3584 
Q 2709 3584 3137 3096 
Q 3566 2609 3566 1747 
Q 3566 888 3137 398 
Q 2709 -91 1959 -91 
Q 1206 -91 779 398 
Q 353 888 353 1747 
Q 353 2609 779 3096 
Q 1206 3584 1959 3584 
z
" transform="scale(0.015625)"/>
      <path id="DejaVuSans-74" d="M 1172 4494 
L 1172 3500 
L 2356 3500 
L 2356 3053 
L 1172 3053 
L 1172 1153 
Q 1172 725 1289 603 
Q 1406 481 1766 481 
L 2356 481 
L 2356 0 
L 1766 0 
Q 1100 0 847 248 
Q 594 497 594 1153 
L 594 3053 
L 172 3053 
L 172 3500 
L 594 3500 
L 594 4494 
L 1172 4494 
z
" transform="scale(0.015625)"/>
      <path id="DejaVuSans-68" d="M 3513 2113 
L 3513 0 
L 2938 0 
L 2938 2094 
Q 2938 2591 2744 2837 
Q 2550 3084 2163 3084 
Q 1697 3084 1428 2787 
Q 1159 2491 1159 1978 
L 1159 0 
L 581 0 
L 581 4863 
L 1159 4863 
L 1159 2956 
Q 1366 3272 1645 3428 
Q 1925 3584 2291 3584 
Q 2894 3584 3203 3211 
Q 3513 2838 3513 2113 
z
" transform="scale(0.015625)"/>
      <path id="DejaVuSans-65" d="M 3597 1894 
L 3597 1613 
L 953 1613 
Q 991 1019 1311 708 
Q 1631 397 2203 397 
Q 2534 397 2845 478 
Q 3156 559 3463 722 
L 3463 178 
Q 3153 47 2828 -22 
Q 2503 -91 2169 -91 
Q 1331 -91 842 396 
Q 353 884 353 1716 
Q 353 2575 817 3079 
Q 1281 3584 2069 3584 
Q 2775 3584 3186 3129 
Q 3597 2675 3597 1894 
z
M 3022 2063 
Q 3016 2534 2758 2815 
Q 2500 3097 2075 3097 
Q 1594 3097 1305 2825 
Q 1016 2553 972 2059 
L 3022 2063 
z
" transform="scale(0.015625)"/>
      <path id="DejaVuSans-64" d="M 2906 2969 
L 2906 4863 
L 3481 4863 
L 3481 0 
L 2906 0 
L 2906 525 
Q 2725 213 2448 61 
Q 2172 -91 1784 -91 
Q 1150 -91 751 415 
Q 353 922 353 1747 
Q 353 2572 751 3078 
Q 1150 3584 1784 3584 
Q 2172 3584 2448 3432 
Q 2725 3281 2906 2969 
z
M 947 1747 
Q 947 1113 1208 752 
Q 1469 391 1925 391 
Q 2381 391 2643 752 
Q 2906 1113 2906 1747 
Q 2906 2381 2643 2742 
Q 2381 3103 1925 3103 
Q 1469 3103 1208 2742 
Q 947 2381 947 1747 
z
" transform="scale(0.015625)"/>
      <path id="DejaVuSans-20" transform="scale(0.015625)"/>
      <path id="DejaVuSans-50" d="M 1259 4147 
L 1259 2394 
L 2053 2394 
Q 2494 2394 2734 2622 
Q 2975 2850 2975 3272 
Q 2975 3691 2734 3919 
Q 2494 4147 2053 4147 
L 1259 4147 
z
M 628 4666 
L 2053 4666 
Q 2838 4666 3239 4311 
Q 3641 3956 3641 3272 
Q 3641 2581 3239 2228 
Q 2838 1875 2053 1875 
L 1259 1875 
L 1259 0 
L 628 0 
L 628 4666 
z
" transform="scale(0.015625)"/>
      <path id="DejaVuSans-61" d="M 2194 1759 
Q 1497 1759 1228 1600 
Q 959 1441 959 1056 
Q 959 750 1161 570 
Q 1363 391 1709 391 
Q 2188 391 2477 730 
Q 2766 1069 2766 1631 
L 2766 1759 
L 2194 1759 
z
M 3341 1997 
L 3341 0 
L 2766 0 
L 2766 531 
Q 2569 213 2275 61 
Q 1981 -91 1556 -91 
Q 1019 -91 701 211 
Q 384 513 384 1019 
Q 384 1609 779 1909 
Q 1175 2209 1959 2209 
L 2766 2209 
L 2766 2266 
Q 2766 2663 2505 2880 
Q 2244 3097 1772 3097 
Q 1472 3097 1187 3025 
Q 903 2953 641 2809 
L 641 3341 
Q 956 3463 1253 3523 
Q 1550 3584 1831 3584 
Q 2591 3584 2966 3190 
Q 3341 2797 3341 1997 
z
" transform="scale(0.015625)"/>
     </defs>
     <use xlink:href="#DejaVuSans-53"/>
     <use xlink:href="#DejaVuSans-6d" x="63.476562"/>
     <use xlink:href="#DejaVuSans-6f" x="160.888672"/>
     <use xlink:href="#DejaVuSans-6f" x="222.070312"/>
     <use xlink:href="#DejaVuSans-74" x="283.251953"/>
     <use xlink:href="#DejaVuSans-68" x="322.460938"/>
     <use xlink:href="#DejaVuSans-65" x="385.839844"/>
     <use xlink:href="#DejaVuSans-64" x="447.363281"/>
     <use xlink:href="#DejaVuSans-20" x="510.839844"/>
     <use xlink:href="#DejaVuSans-50" x="542.626953"/>
     <use xlink:href="#DejaVuSans-61" x="598.429688"/>
     <use xlink:href="#DejaVuSans-74" x="659.708984"/>
     <use xlink:href="#DejaVuSans-68" x="698.917969"/>
    </g>
   </g>
   <g id="legend_1">
    <g id="patch_7">
     <path d="M 324.634063 64.150125 
L 407.72 64.150125 
Q 409.72 64.150125 409.72 62.150125 
L 409.72 48.472 
Q 409.72 46.472 407.72 46.472 
L 324.634063 46.472 
Q 322.634063 46.472 322.634063 48.472 
L 322.634063 62.150125 
Q 322.634063 64.150125 324.634063 64.150125 
z
" style="fill: #ffffff; opacity: 0.8; stroke: #cccccc; stroke-linejoin: miter"/>
    </g>
    <g id="line2d_14">
     <g>
      <use xlink:href="#m64d04c3d67" x="336.634063" y="54.570438" style="fill: #1f77b4"/>
     </g>
    </g>
    <g id="text_16">
     <!-- Smoothed -->
     <g transform="translate(354.634063 58.070438) scale(0.1 -0.1)">
      <use xlink:href="#DejaVuSans-53"/>
      <use xlink:href="#DejaVuSans-6d" x="63.476562"/>
      <use xlink:href="#DejaVuSans-6f" x="160.888672"/>
      <use xlink:href="#DejaVuSans-6f" x="222.070312"/>
      <use xlink:href="#DejaVuSans-74" x="283.251953"/>
      <use xlink:href="#DejaVuSans-68" x="322.460938"/>
      <use xlink:href="#DejaVuSans-65" x="385.839844"/>
      <use xlink:href="#DejaVuSans-64" x="447.363281"/>
     </g>
    </g>
   </g>
  </g>
 </g>
 <defs>
  <clipPath id="pe8fbd2a188">
   <rect x="57.6" y="41.472" width="357.12" height="266.112"/>
  </clipPath>
 </defs>
</svg>
